<svg width="25" height="24" viewBox="0 0 25 24" fill="none" xmlns="http://www.w3.org/2000/svg">
<path fill-rule="evenodd" clip-rule="evenodd" d="M13.6181 1.75869C13.6229 1.3445 13.291 1.00485 12.8769 1.00005C12.4627 0.995255 12.123 1.32713 12.1182 1.74132L12.0683 6.05508C12.0635 6.46926 12.3953 6.80891 12.8095 6.81371C13.2237 6.81851 13.5634 6.48663 13.5682 6.07245L13.6181 1.75869ZM7.41178 2.41695C7.77148 2.21154 8.22958 2.33663 8.43498 2.69633L10.5742 6.4426C10.7796 6.8023 10.6546 7.26041 10.2949 7.46581C9.93517 7.67121 9.47706 7.54612 9.27166 7.18643L7.1324 3.44015C6.927 3.08045 7.05208 2.62235 7.41178 2.41695ZM4.49042 6.06233C4.13301 5.85297 3.67355 5.97298 3.46419 6.33039C3.25482 6.68779 3.37483 7.14725 3.73224 7.35662L7.45465 9.53715C7.81205 9.74651 8.27151 9.6265 8.48088 9.2691C8.69024 8.91169 8.57023 8.45223 8.21282 8.24287L4.49042 6.06233ZM2.00002 11.6657C2.00322 11.2515 2.34159 10.9183 2.75579 10.9215L7.06971 10.9548C7.48391 10.958 7.8171 11.2964 7.8139 11.7106C7.8107 12.1248 7.47233 12.458 7.05813 12.4548L2.74421 12.4215C2.33001 12.4183 1.99682 12.0799 2.00002 11.6657ZM22.751 12.5001C23.1652 12.5001 23.501 12.1643 23.501 11.7501C23.501 11.3359 23.1652 11.0001 22.751 11.0001H18.4369C18.0227 11.0001 17.6869 11.3359 17.6869 11.7501C17.6869 12.1643 18.0227 12.5001 18.4369 12.5001H22.751ZM21.0432 17.3921C21.4021 17.5988 21.8607 17.4754 22.0674 17.1165C22.2741 16.7576 22.1507 16.299 21.7918 16.0923L18.0534 13.9392C17.6945 13.7325 17.2359 13.8559 17.0292 14.2148C16.8225 14.5738 16.9459 15.0323 17.3048 15.2391L21.0432 17.3921ZM18.1345 21.057C17.7763 21.265 17.3173 21.1433 17.1093 20.7852L14.9425 17.0547C14.7344 16.6966 14.8561 16.2376 15.2143 16.0295C15.5725 15.8215 16.0315 15.9432 16.2395 16.3013L18.4063 20.0317C18.6144 20.3899 18.4927 20.8489 18.1345 21.057ZM11.9614 21.7478C11.9598 22.1621 12.2943 22.4991 12.7085 22.5007C13.1227 22.5023 13.4598 22.1678 13.4614 21.7536L13.4781 17.4396C13.4797 17.0254 13.1452 16.6883 12.731 16.6867C12.3168 16.6851 11.9797 17.0196 11.9781 17.4338L11.9614 21.7478ZM7.34351 21.0436C6.98534 20.8355 6.86364 20.3765 7.07168 20.0183L9.23849 16.2879C9.44654 15.9297 9.90555 15.808 10.2637 16.0161C10.6219 16.2241 10.7436 16.6831 10.5356 17.0413L8.36875 20.7717C8.1607 21.1299 7.70169 21.2516 7.34351 21.0436ZM3.70137 16.079C3.34244 16.2857 3.21904 16.7443 3.42577 17.1032C3.63249 17.4621 4.09105 17.5855 4.44999 17.3788L8.18836 15.2257C8.5473 15.019 8.67069 14.5605 8.46397 14.2015C8.25724 13.8426 7.79868 13.7192 7.43974 13.9259L3.70137 16.079ZM18.1964 2.47938C18.553 2.69006 18.6714 3.14996 18.4607 3.50659L16.2665 7.22094C16.0558 7.57758 15.5959 7.6959 15.2393 7.48522C14.8826 7.27454 14.7643 6.81464 14.975 6.45801L17.1692 2.74366C17.3799 2.38702 17.8398 2.2687 18.1964 2.47938ZM21.8226 7.47285C22.1831 7.26878 22.3099 6.81114 22.1058 6.45068C21.9017 6.09023 21.4441 5.96346 21.0836 6.16753L17.3295 8.29297C16.969 8.49704 16.8423 8.95468 17.0463 9.31513C17.2504 9.67559 17.708 9.80236 18.0685 9.59828L21.8226 7.47285Z" fill="white"/>
</svg>
